<?xml version="1.0" encoding="utf-8"?>
<!-- Generator: Adobe Illustrator 20.1.0, SVG Export Plug-In . SVG Version: 6.00 Build 0)  -->
<svg version="1.1" id="Layer_1" xmlns="http://www.w3.org/2000/svg" xmlns:xlink="http://www.w3.org/1999/xlink" x="0px" y="0px"
	 viewBox="0 0 365 365" style="enable-background:new 0 0 365 365;" xml:space="preserve">
<style type="text/css">
	.st0{fill:#AAAAAA;}
	.st1{fill:#FFFFFF;}
</style>
<rect class="st0" width="365" height="365"/>
<g>
	<path class="st1" d="M317.9,291.3H47.1c-13.6,0-24.6-11.1-24.6-24.6V98.4c0-13.6,11.1-24.6,24.6-24.6h270.7
		c13.6,0,24.6,11.1,24.6,24.6v168.3C342.5,280.2,331.4,291.3,317.9,291.3L317.9,291.3z M35.9,276.7c2.8,3.1,6.8,5,11.3,5h270.7
		c4.4,0,8.4-1.9,11.2-5l-120.7-88.6l-23,16.8c-1.7,1.2-3.9,1.2-5.6,0l-23.3-16.7L35.9,276.7z M216.4,182.3l116.5,85.5
		c0-0.4,0-0.7,0-1.1V98.4c0-0.4,0-0.8,0-1.1L216.4,182.3z M32.1,97.7c0,0.2,0,0.4,0,0.6v168.3c0,0.3,0,0.7,0,1l116.3-85.4L32.1,97.7
		z M35.7,88.6l146.8,106.6l146.6-107c-2.8-3-6.8-5-11.2-5H47.1C42.5,83.3,38.4,85.3,35.7,88.6L35.7,88.6z"/>
</g>
</svg>
