<?xml version="1.0" encoding="iso-8859-1"?>
<!-- Generator: Adobe Illustrator 19.0.0, SVG Export Plug-In . SVG Version: 6.00 Build 0)  -->
<svg version="1.1" id="Layer_1" xmlns="http://www.w3.org/2000/svg" xmlns:xlink="http://www.w3.org/1999/xlink" x="0px" y="0px"
	 viewBox="0 0 512 512" style="enable-background:new 0 0 512 512;" xml:space="preserve">
<circle style="fill:#273B7A;" cx="256" cy="256" r="256"/>
<path style="fill:#121149;" d="M154.721,355.837L305.99,507.106c101.283-20.051,181.067-99.837,201.118-201.119L357.136,156.015
	L154.721,355.837z"/>
<circle style="fill:#FFC61B;" cx="256" cy="256" r="142.222"/>
<path style="fill:#EAA22F;" d="M398.222,256c0-78.546-63.674-142.222-142.222-142.222v284.444
	C334.548,398.222,398.222,334.546,398.222,256z"/>
<circle style="fill:#FFEDB5;" cx="193.801" cy="227.556" r="39.076"/>
<circle style="fill:#272525;" cx="193.801" cy="227.556" r="19.537"/>
<circle style="fill:#FFEDB5;" cx="318.199" cy="227.556" r="39.076"/>
<circle style="fill:#272525;" cx="318.199" cy="227.556" r="19.537"/>
<rect x="164.15" y="308.476" style="fill:#808183;" width="12.267" height="12.267"/>
<rect x="164.15" y="294.909" style="fill:#FFFFFF;" width="12.267" height="12.267"/>
<rect x="178.217" y="294.909" style="fill:#808183;" width="12.267" height="12.267"/>
<rect x="178.217" y="308.476" style="fill:#FFFFFF;" width="12.267" height="12.267"/>
<rect x="192.267" y="308.476" style="fill:#808183;" width="12.267" height="12.267"/>
<rect x="192.267" y="294.909" style="fill:#FFFFFF;" width="12.267" height="12.267"/>
<rect x="206.317" y="294.909" style="fill:#808183;" width="12.267" height="12.267"/>
<rect x="206.317" y="308.476" style="fill:#FFFFFF;" width="12.267" height="12.267"/>
<rect x="220.367" y="308.476" style="fill:#808183;" width="12.267" height="12.267"/>
<rect x="220.367" y="294.909" style="fill:#FFFFFF;" width="12.267" height="12.267"/>
<rect x="234.417" y="294.909" style="fill:#808183;" width="12.267" height="12.267"/>
<rect x="234.417" y="308.476" style="fill:#FFFFFF;" width="12.267" height="12.267"/>
<rect x="248.467" y="308.476" style="fill:#808183;" width="12.267" height="12.267"/>
<rect x="248.467" y="294.909" style="fill:#FFFFFF;" width="12.267" height="12.267"/>
<rect x="262.534" y="294.909" style="fill:#808183;" width="12.267" height="12.267"/>
<rect x="262.534" y="308.476" style="fill:#FFFFFF;" width="12.267" height="12.267"/>
<rect x="276.583" y="308.476" style="fill:#808183;" width="12.267" height="12.267"/>
<rect x="276.583" y="294.909" style="fill:#FFFFFF;" width="12.267" height="12.267"/>
<rect x="290.633" y="294.909" style="fill:#808183;" width="12.267" height="12.267"/>
<rect x="290.633" y="308.476" style="fill:#FFFFFF;" width="12.267" height="12.267"/>
<rect x="304.683" y="308.476" style="fill:#808183;" width="12.267" height="12.267"/>
<rect x="304.683" y="294.909" style="fill:#FFFFFF;" width="12.267" height="12.267"/>
<rect x="318.733" y="294.909" style="fill:#808183;" width="12.267" height="12.267"/>
<rect x="318.733" y="308.476" style="fill:#FFFFFF;" width="12.267" height="12.267"/>
<path style="fill:#272525;" d="M345.11,344.607l-5.711-44.351c-0.403-3.127-3.065-5.468-6.218-5.468h-1.984
	c-3.117,0-5.761,2.291-6.204,5.375l-6.384,44.351c-0.543,3.779,2.388,7.163,6.204,7.163h14.081
	C342.673,351.677,345.593,348.357,345.11,344.607z M339.609,341.416c0,1.784-1.446,3.232-3.232,3.232h-9.051
	c-1.784,0-3.232-1.448-3.232-3.232v-1.889c0-1.784,1.446-3.232,3.232-3.232h9.051c1.784,0,3.232,1.446,3.232,3.232V341.416z"/>
<g>
</g>
<g>
</g>
<g>
</g>
<g>
</g>
<g>
</g>
<g>
</g>
<g>
</g>
<g>
</g>
<g>
</g>
<g>
</g>
<g>
</g>
<g>
</g>
<g>
</g>
<g>
</g>
<g>
</g>
</svg>
